<svg width="687" height="597" viewBox="0 0 687 597" fill="none" xmlns="http://www.w3.org/2000/svg">
<g opacity="0.4">
<path d="M683.003 364.069C673.498 333.661 648.918 310.85 626.672 288.025C604.426 265.2 582.547 238.346 580.991 206.519C578.778 160.746 619.348 120.512 615.168 74.8762C611.552 35.2064 572.843 5.36251 533.265 0.800479C493.687 -3.76155 454.398 11.786 420.008 31.926C385.617 52.0661 354.11 77.058 318.3 94.5433C266.699 119.764 208.796 128.11 152.542 139.721C111.148 148.265 68.1976 159.785 37.423 188.744C13.7584 210.974 -0.70581 243.046 0.0265555 275.453C0.758921 307.86 17.4355 339.901 44.5635 357.646C86.5982 385.109 142.105 375.131 190.426 361.368C238.747 347.606 290.699 331.128 337.861 348.43C385.022 365.732 414.439 412.436 455.604 441.364C500.614 472.993 563.643 479.264 617.639 475.526C668.432 472.017 697.193 409.384 683.003 364.069Z" fill="#969696"/>
<path d="M84.5385 399.36L36.0803 379.815C30.7554 377.664 25.0796 375.482 19.419 376.458C8.92177 378.259 3.06284 390.785 4.9853 401.267C6.90776 411.749 14.3535 420.278 22.0738 427.617C32.1591 437.183 43.4345 445.835 56.3119 451.022C69.1893 456.21 83.9435 457.644 97.065 452.929C106.845 449.39 124.529 436.527 121.904 424.153C119.28 411.78 94.3339 403.312 84.5385 399.36Z" fill="#969696"/>
</g>
<path d="M644.356 312.071H434.594V595.985H644.356V312.071Z" stroke="#121D30" stroke-width="0.75" stroke-miterlimit="10"/>
<path d="M634.286 325.727H444.679V582.344H634.286V325.727Z" stroke="#121D30" stroke-width="0.75" stroke-miterlimit="10"/>
<path d="M563.216 469.804H515.734V485.413H563.216V469.804Z" stroke="#121D30" stroke-width="0.75" stroke-miterlimit="10"/>
<path d="M569.197 493.225H509.783V499.648H569.197V493.225Z" stroke="#121D30" stroke-width="0.75" stroke-miterlimit="10"/>
<path d="M466.345 577.462H450.248H458.426" stroke="#121D30" stroke-width="0.75" stroke-miterlimit="10"/>
<path d="M450.248 572.091H456.122" stroke="#121D30" stroke-width="0.75" stroke-miterlimit="10"/>
<path d="M534.073 472.337H546.051" stroke="#121D30" stroke-width="0.75" stroke-miterlimit="10"/>
<path d="M526.643 476.716H553.466" stroke="#121D30" stroke-width="0.75" stroke-miterlimit="10"/>
<path d="M534.791 481.843H545.318" stroke="#121D30" stroke-width="0.75" stroke-miterlimit="10"/>
<path d="M634.286 456.286H444.679" stroke="#121D30" stroke-width="0.75" stroke-miterlimit="10"/>
<path d="M563.216 337.124H515.734V352.733H563.216V337.124Z" stroke="#121D30" stroke-width="0.75" stroke-miterlimit="10"/>
<path d="M569.197 360.529H509.783V366.953H569.197V360.529Z" stroke="#121D30" stroke-width="0.75" stroke-miterlimit="10"/>
<path d="M604.884 451.114H628.808" stroke="#121D30" stroke-width="0.75" stroke-miterlimit="10"/>
<path d="M624.307 447.208H628.808" stroke="#121D30" stroke-width="0.75" stroke-miterlimit="10"/>
<path d="M526.353 340.053H553.695" stroke="#121D30" stroke-width="0.75" stroke-miterlimit="10"/>
<path d="M520.967 344.6H559.081" stroke="#121D30" stroke-width="0.75" stroke-miterlimit="10"/>
<path d="M443.413 329.144H452.888" stroke="#121D30" stroke-width="0.75" stroke-miterlimit="10"/>
<path d="M443.413 335.491H472.692" stroke="#121D30" stroke-width="0.75" stroke-miterlimit="10"/>
<path d="M96.6226 302.825L194.592 324.186C179.654 279.694 235.268 250.613 220.347 206.122L122.377 184.761C137.345 229.253 81.7006 258.349 96.6226 302.825Z" fill="white"/>
<path d="M162.764 274.186L145.127 270.845L145.462 269.075C145.856 266.587 146.666 264.184 147.858 261.965C148.905 260.207 150.265 258.656 151.87 257.388C155.293 255.016 158.86 252.861 162.551 250.934C165.434 249.408 167.052 247.73 167.372 246.036C167.553 245.313 167.578 244.56 167.447 243.826C167.315 243.092 167.03 242.395 166.609 241.779C165.517 240.498 163.979 239.68 162.307 239.491C161.3 239.27 160.259 239.258 159.249 239.458C158.238 239.658 157.279 240.063 156.432 240.65C154.724 241.82 153.325 244.185 152.237 247.745L134.645 242.1C136.14 236.128 139.785 230.919 144.882 227.468C149.846 224.233 156.661 223.434 165.328 225.072C172.071 226.344 177.249 228.78 180.86 232.381C183.163 234.455 184.888 237.093 185.864 240.036C186.84 242.978 187.035 246.124 186.429 249.164C185.905 251.85 184.654 254.341 182.813 256.365C179.688 259.375 176.077 261.836 172.132 263.643C169.52 264.826 167.138 266.464 165.099 268.48C163.851 270.154 163.048 272.118 162.764 274.186ZM143.631 275.422L162.535 278.993L159.377 295.654L140.488 292.084L143.631 275.422Z" stroke="#121D30" stroke-width="0.75" stroke-miterlimit="10"/>
<path d="M450.721 256.61L537.095 205.603C495.899 183.175 516.848 124.021 475.637 101.577L389.309 152.568C430.474 175.012 409.51 234.166 450.721 256.61Z" fill="white"/>
<path d="M479.909 186.898L464.27 195.701L463.4 194.175C462.089 192.02 461.155 189.657 460.639 187.187C460.315 185.162 460.361 183.094 460.776 181.084C461.843 177.077 463.168 173.142 464.743 169.306C465.933 166.254 466.116 163.95 465.262 162.44C464.936 161.772 464.473 161.18 463.902 160.704C463.331 160.228 462.666 159.879 461.951 159.678C460.285 159.402 458.577 159.773 457.175 160.716C456.266 161.193 455.465 161.852 454.822 162.653C454.178 163.454 453.707 164.378 453.437 165.369C452.888 167.383 453.346 170.084 454.795 173.501L437.706 180.535C435.019 174.997 434.475 168.66 436.181 162.745C437.879 157.069 442.569 152.064 450.248 147.731C456.229 144.354 461.763 142.879 466.849 143.307C469.955 143.407 472.983 144.315 475.631 145.942C478.28 147.568 480.459 149.857 481.954 152.583C483.283 154.977 483.927 157.69 483.815 160.426C483.815 163.325 482.61 167.444 480.397 172.815C479.157 175.409 478.392 178.205 478.139 181.069C478.235 183.129 478.843 185.132 479.909 186.898ZM466.086 200.172L482.869 190.727L491.2 205.497L474.416 214.941L466.086 200.172Z" stroke="#121D30" stroke-width="0.75" stroke-miterlimit="10"/>
<path d="M531.129 420.522L444.801 369.531C485.997 347.087 465.063 287.934 506.259 265.505L592.586 316.496C551.391 338.97 572.34 398.139 531.129 420.522Z" fill="white"/>
<path d="M521.181 357.295L505.13 349.238L505.938 347.713C506.998 345.423 508.443 343.333 510.211 341.533C511.695 340.131 513.429 339.019 515.322 338.253C519.237 336.894 523.238 335.798 527.299 334.973C530.518 334.255 532.502 333.126 533.28 331.585C533.654 330.941 533.887 330.223 533.964 329.482C534.04 328.74 533.958 327.99 533.723 327.283C533.032 325.745 531.775 324.532 530.213 323.896C529.306 323.416 528.312 323.124 527.289 323.037C526.267 322.951 525.238 323.072 524.263 323.392C522.279 324.063 520.281 325.95 518.267 329.053L502.902 318.8C505.98 313.469 510.919 309.463 516.771 307.555C522.427 305.805 529.196 306.904 537.079 310.85C543.182 313.902 547.495 317.67 550.018 322.156C551.669 324.79 552.605 327.81 552.734 330.916C552.862 334.023 552.178 337.109 550.75 339.87C549.504 342.309 547.615 344.361 545.288 345.806C541.477 347.841 537.351 349.218 533.082 349.879C530.242 350.301 527.5 351.221 524.98 352.595C523.344 353.823 522.038 355.437 521.181 357.295ZM502.444 353.236L519.625 361.857L511.996 377.023L494.816 368.387L502.444 353.236Z" stroke="#121D30" stroke-width="0.75" stroke-miterlimit="10"/>
<path d="M319.185 180.566C319.185 180.566 343.918 144.497 374.845 162.47C413.554 184.99 366.804 238.621 395.412 254.138C424.02 269.655 453.605 270.921 461.859 313.795C472.631 369.913 371.122 448.825 285.283 398.872C199.444 348.918 229.974 255.45 270.285 236.805C318.789 214.422 319.185 180.566 319.185 180.566Z" fill="#121D30"/>
<path d="M354.446 276.292V314.772C354.446 320.93 351.999 326.837 347.644 331.192C343.289 335.547 337.382 337.994 331.224 337.994C325.065 337.994 319.158 335.547 314.803 331.192C310.448 326.837 308.001 320.93 308.001 314.772V276.292H354.446Z" fill="#D28A7B"/>
<path d="M257.24 249.911C257.928 253.286 259.602 256.38 262.05 258.802C264.497 261.225 267.608 262.867 270.989 263.521C274.37 264.176 277.869 263.813 281.043 262.478C284.218 261.144 286.925 258.897 288.823 256.024C290.721 253.151 291.724 249.779 291.705 246.335C291.687 242.892 290.647 239.531 288.718 236.678C286.789 233.825 284.058 231.609 280.869 230.309C277.68 229.009 274.177 228.684 270.804 229.375C266.282 230.301 262.314 232.984 259.77 236.835C257.227 240.686 256.316 245.39 257.24 249.911Z" fill="#D28A7B"/>
<path d="M283.345 220.77V250.11C283.345 250.11 271.704 239.765 272.024 219.396L283.345 220.77Z" fill="#121D30"/>
<path d="M262.015 243.32L275.793 252.643" stroke="#121D30" stroke-width="0.75" stroke-miterlimit="10"/>
<path d="M358.001 246.418C358.69 249.792 360.365 252.886 362.813 255.308C365.262 257.731 368.374 259.372 371.755 260.026C375.137 260.679 378.636 260.314 381.811 258.978C384.985 257.642 387.692 255.394 389.589 252.52C391.485 249.645 392.487 246.272 392.466 242.828C392.445 239.384 391.403 236.023 389.472 233.171C387.541 230.319 384.807 228.105 381.617 226.807C378.426 225.509 374.923 225.187 371.549 225.881C367.031 226.81 363.066 229.495 360.526 233.346C357.985 237.196 357.077 241.898 358.001 246.418Z" fill="#D28A7B"/>
<path d="M375.043 242.924C375.043 242.924 384.991 232.045 381.497 206.305H367.552L375.043 242.924Z" fill="#121D30"/>
<path d="M372.175 250.613L385.678 237.538" stroke="#121D30" stroke-width="0.75" stroke-miterlimit="10"/>
<path d="M329.194 174.875C323.171 174.865 317.204 176.044 311.637 178.344C306.07 180.645 301.011 184.022 296.752 188.281C292.492 192.541 289.115 197.599 286.815 203.166C284.514 208.733 283.335 214.7 283.345 220.724V254.214C283.345 257.684 284.227 261.096 285.909 264.131C287.59 267.165 290.016 269.723 292.958 271.562L318.331 287.445C321.586 289.487 325.352 290.57 329.194 290.57C333.037 290.57 336.802 289.487 340.058 287.445L365.431 271.562C368.373 269.723 370.798 267.165 372.48 264.131C374.161 261.096 375.044 257.684 375.044 254.214V220.769C375.06 214.742 373.885 208.77 371.587 203.198C369.289 197.625 365.913 192.562 361.653 188.297C357.393 184.033 352.333 180.652 346.763 178.349C341.192 176.045 335.222 174.865 329.194 174.875Z" fill="#D28A7B"/>
<path d="M308.001 281.296L318.331 287.766C321.586 289.808 325.351 290.891 329.194 290.891C333.037 290.891 336.802 289.808 340.058 287.766" stroke="#121D30" stroke-width="0.75" stroke-miterlimit="10"/>
<path d="M325.349 174.92L336.854 254.153H322.42" stroke="#121D30" stroke-width="0.75" stroke-miterlimit="10"/>
<path d="M372.999 244.068C372.999 246.389 372.311 248.657 371.022 250.586C369.732 252.516 367.9 254.02 365.756 254.908C363.612 255.796 361.253 256.028 358.977 255.576C356.701 255.123 354.61 254.005 352.969 252.365C351.328 250.724 350.211 248.633 349.758 246.357C349.305 244.081 349.538 241.722 350.426 239.578C351.314 237.434 352.818 235.601 354.747 234.312C356.677 233.023 358.945 232.335 361.266 232.335C364.378 232.335 367.362 233.571 369.562 235.771C371.763 237.972 372.999 240.956 372.999 244.068Z" fill="#CB705D"/>
<path d="M307.116 252.367C311.699 247.785 311.699 240.356 307.116 235.774C302.534 231.192 295.105 231.192 290.523 235.774C285.941 240.356 285.941 247.785 290.523 252.367C295.105 256.949 302.534 256.949 307.116 252.367Z" fill="#CB705D"/>
<path d="M354.43 232.854C354.43 236.927 352.63 240.208 350.402 240.208C348.175 240.208 346.374 236.927 346.374 232.854C346.374 229.573 347.564 226.751 349.212 225.866L354.156 230.245C354.329 231.104 354.421 231.977 354.43 232.854Z" fill="#121D30"/>
<path d="M312.03 232.853C312.03 236.927 310.229 240.208 308.002 240.208C305.774 240.208 303.958 236.927 303.958 232.853C303.952 231.756 304.096 230.662 304.386 229.604L310.061 226.552C311.457 228.346 312.156 230.584 312.03 232.853Z" fill="#121D30"/>
<path d="M382.794 168.68C351.867 150.707 319.185 180.55 319.185 180.55C319.185 180.55 318.773 214.422 270.285 236.805C260.062 241.52 246.361 258.334 239.937 268.556C239.937 268.556 254.112 227.681 258.582 201.24C263.053 174.798 286.58 178.857 286.58 178.857C286.58 178.857 300.815 144.054 340.271 144.207C367.506 144.359 382.794 168.68 382.794 168.68Z" fill="#121D30"/>
<path d="M351.379 204.123C356.994 200.477 360.533 201.285 359.679 209.067L351.379 204.123Z" fill="#121D30"/>
<path d="M295.368 210.745C294.102 204.185 296.192 201.209 303.073 204.932L295.368 210.745Z" fill="#121D30"/>
<path d="M321.794 267.488C327.897 259.264 335.526 262.636 337.495 267.488" stroke="#121D30" stroke-width="0.75" stroke-miterlimit="10"/>
<path d="M526.185 423.574C527.981 421.323 529.316 418.741 530.113 415.974C530.91 413.208 531.154 410.311 530.831 407.45C530.507 404.589 529.624 401.82 528.23 399.301C526.836 396.782 524.959 394.562 522.707 392.769L437.539 324.903C435.289 323.109 432.707 321.777 429.942 320.981C427.177 320.185 424.282 319.942 421.423 320.265C418.564 320.588 415.797 321.471 413.279 322.864C410.761 324.256 408.542 326.131 406.749 328.381C404.953 330.632 403.619 333.214 402.822 335.981C402.025 338.747 401.781 341.644 402.104 344.505C402.427 347.366 403.311 350.135 404.705 352.654C406.098 355.173 407.975 357.393 410.228 359.187L495.396 427.052C497.645 428.848 500.226 430.182 502.991 430.979C505.757 431.775 508.652 432.019 511.512 431.696C514.371 431.373 517.139 430.489 519.657 429.096C522.175 427.702 524.393 425.825 526.185 423.574Z" fill="#D28A7B"/>
<path d="M139.863 427.358C136.244 422.809 134.578 417.011 135.23 411.235C135.882 405.46 138.799 400.179 143.341 396.553L228.509 328.687C233.056 325.064 238.855 323.395 244.632 324.048C250.409 324.7 255.69 327.62 259.314 332.165C262.933 336.714 264.599 342.512 263.947 348.288C263.295 354.063 260.378 359.344 255.836 362.97L170.668 430.836C168.417 432.632 165.835 433.966 163.068 434.764C160.302 435.561 157.405 435.805 154.544 435.481C151.683 435.158 148.914 434.275 146.395 432.881C143.876 431.487 141.656 429.61 139.863 427.358Z" fill="#D28A7B"/>
<path d="M400.188 302.932L336.854 323.972V324.643L271.49 302.932C266.819 301.382 261.81 301.154 257.017 302.271C252.223 303.388 247.832 305.807 244.327 309.262C240.821 312.717 238.338 317.073 237.152 321.849C235.965 326.626 236.122 331.637 237.603 336.331L286.656 491.287H374.342L434.075 336.331C435.562 331.637 435.723 326.623 434.538 321.843C433.354 317.064 430.871 312.705 427.364 309.249C423.857 305.792 419.463 303.373 414.667 302.258C409.871 301.143 404.86 301.376 400.188 302.932Z" fill="#EDB837"/>
<path d="M363.005 346.965L369.52 303.954L295.734 296.798L302.585 346.965H363.005Z" fill="#EDB837"/>
<path d="M299.747 320.142C309.97 342.556 327.211 352.717 340.943 352.717C351.898 352.717 360.625 346.614 365.355 336.102C364.478 345.829 363.103 355.505 361.235 365.091C357.619 383.019 350.769 404.395 338.669 404.395C337.43 404.379 336.2 404.174 335.023 403.785C313.098 396.812 302.982 342.373 299.747 320.203M297.397 311.049C297.397 311.049 306.155 395.866 334.687 404.944C335.972 405.37 337.316 405.591 338.669 405.6C363.6 405.6 367.354 325.162 367.354 325.162C364.607 342.998 353.698 351.695 341.004 351.695C324.983 351.695 306.155 337.841 297.397 311.049Z" fill="#121D30"/>
<path d="M269.018 464.266L390.911 457.659L380.231 488.541L278.768 487.442L269.018 464.266Z" fill="#2E363D"/>
<path d="M380.231 488.541C380.231 488.541 421.976 527.142 424.478 596H237.755C237.755 531.292 278.768 487.442 278.768 487.442L380.231 488.541Z" fill="#2E363D"/>
<path d="M332.322 495.513L334.824 546.611C334.824 546.611 324.877 542.598 325.121 525.464" stroke="white" stroke-width="0.75" stroke-miterlimit="10"/>
<path d="M402.599 516.996H372.312C372.312 516.996 386.41 549.937 416.407 547.053" stroke="white" stroke-width="0.75" stroke-miterlimit="10"/>
<path d="M242.211 551.738C242.211 551.738 264.548 557.124 284.352 525.388" stroke="white" stroke-width="0.75" stroke-miterlimit="10"/>
<path d="M303.333 483.277H282.216V493.835H303.333V483.277Z" fill="#5C5C5C"/>
<path d="M374.937 483.277H353.82V493.835H374.937V483.277Z" fill="#5C5C5C"/>
<path d="M345.23 483.277H313.143V493.835H345.23V483.277Z" fill="#5C5C5C"/>
<path d="M337.082 481.156H321.321V495.971H337.082V481.156Z" fill="white"/>
<path d="M146.5 394.004C149.579 392.072 153.01 390.766 156.595 390.161C160.179 389.556 163.848 389.664 167.391 390.479C170.935 391.294 174.282 392.8 177.242 394.91C180.203 397.021 182.718 399.694 184.644 402.778L239.708 501.861L222.788 521.39L137.711 432.118C135.784 429.039 134.483 425.61 133.882 422.028C133.281 418.445 133.391 414.78 134.208 411.24C135.024 407.701 136.529 404.357 138.639 401.399C140.748 398.442 143.419 395.929 146.5 394.004Z" fill="#D28A7B"/>
<path d="M232.812 495.803C255.103 495.712 275.274 484.482 275.274 484.482L287.8 523.633C251.106 537.548 232.537 528.378 222.742 521.451L232.812 495.803Z" fill="#D28A7B"/>
<path d="M275.274 484.482C275.274 484.482 295.826 482.651 310.504 492.355L313.143 516.767C313.143 516.767 296.009 511.152 285.008 514.875C285.008 514.875 303.989 518.476 311.343 526.456L306.14 531.704C306.14 531.704 289.723 524.457 271.963 526.975L275.274 484.482Z" fill="#D28A7B"/>
<path d="M311.022 498.58C311.022 498.58 293.888 493.026 281.026 492.675" stroke="#121D30" stroke-width="0.75" stroke-miterlimit="10"/>
<path d="M312.213 508.131C312.213 508.131 297.123 502.028 281.453 503.188" stroke="#121D30" stroke-width="0.75" stroke-miterlimit="10"/>
<path d="M204.753 321.973L233.437 352.824L250.236 396.217L220.942 363.001L204.753 321.973Z" fill="#E69230"/>
<path d="M246.315 307.494L196.804 337.338L231.607 394.538L264.09 372.384L246.315 307.494Z" fill="#EDB837"/>
<path d="M204.753 321.973L220.941 363.001L250.236 396.217L225.656 405.31L202.663 373.895L186.627 333.813L204.753 321.973Z" fill="white"/>
<path d="M191.479 415.167L184.598 402.778" stroke="#121D30" stroke-width="0.75" stroke-miterlimit="10"/>
<path d="M519.563 390.266C516.483 388.336 513.053 387.032 509.469 386.428C505.884 385.824 502.216 385.933 498.673 386.747C495.131 387.562 491.783 389.067 488.823 391.176C485.862 393.285 483.347 395.957 481.419 399.039L426.355 498.122L443.23 517.652L528.321 428.38C530.25 425.302 531.553 421.875 532.156 418.294C532.76 414.713 532.652 411.048 531.838 407.509C531.025 403.969 529.522 400.625 527.416 397.666C525.31 394.708 522.642 392.193 519.563 390.266Z" fill="#D28A7B"/>
<path d="M433.251 492.065C410.945 491.974 390.789 480.744 390.789 480.744L378.248 519.895C414.957 533.81 433.526 524.64 443.306 517.713L433.251 492.065Z" fill="#D28A7B"/>
<path d="M390.789 480.744C390.789 480.744 370.237 478.913 355.559 488.617L352.905 513.029C352.905 513.029 370.054 507.414 381.04 511.137C381.04 511.137 362.074 514.738 354.72 522.733L359.923 527.966C359.923 527.966 376.34 520.719 394.1 523.236L390.789 480.744Z" fill="#D28A7B"/>
<path d="M355.041 494.842C355.041 494.842 372.16 489.303 385.037 488.937" stroke="#121D30" stroke-width="0.75" stroke-miterlimit="10"/>
<path d="M353.851 504.439C353.851 504.439 368.925 498.336 384.595 499.496" stroke="#121D30" stroke-width="0.75" stroke-miterlimit="10"/>
<path d="M461.31 318.235L432.626 349.086L415.827 392.479L445.106 359.263L461.31 318.235Z" fill="#E69230"/>
<path d="M419.748 303.756L469.259 333.6L434.457 390.8L401.973 368.646L419.748 303.756Z" fill="#EDB837"/>
<path d="M461.31 318.235L445.106 359.263L415.827 392.479L440.407 401.572L463.385 370.157L479.421 330.075L461.31 318.235Z" fill="white"/>
<path d="M474.569 411.429L481.45 399.039" stroke="#121D30" stroke-width="0.75" stroke-miterlimit="10"/>
<path d="M240.38 591.728H422.662V593.742C422.662 594.341 422.425 594.915 422.001 595.339C421.578 595.762 421.003 596 420.404 596H242.623C242.024 596 241.449 595.762 241.026 595.339C240.602 594.915 240.365 594.341 240.365 593.742V591.728H240.38Z" fill="#DEDEDE"/>
<path d="M369.261 527.081H293.995V552.821C318.804 547.176 343.979 542.492 369.2 538.128L369.261 527.081Z" fill="#969696"/>
<path d="M293.995 552.821V579.476H369.261V538.128C343.979 542.491 318.804 547.16 293.995 552.821Z" fill="#DEDEDE"/>
<path d="M421.64 592.933H241.6C241.342 592.94 241.09 592.852 240.891 592.687C240.692 592.522 240.559 592.29 240.518 592.035C240.477 591.779 240.53 591.518 240.668 591.299C240.805 591.079 241.017 590.918 241.265 590.843L294.041 573.48H369.261L422.037 590.843C422.294 590.916 422.514 591.082 422.654 591.309C422.794 591.536 422.844 591.807 422.795 592.069C422.745 592.332 422.599 592.566 422.385 592.725C422.172 592.885 421.906 592.959 421.64 592.933Z" fill="#DEDEDE"/>
<path d="M360.671 573.495H367.43" stroke="#121D30" stroke-width="0.75" stroke-miterlimit="10"/>
<path d="M293.995 573.495H353.728" stroke="#121D30" stroke-width="0.75" stroke-miterlimit="10"/>
<path d="M293.995 552.821L350.601 541.423" stroke="#121D30" stroke-width="0.75" stroke-miterlimit="10"/>
<path d="M369.2 527.081V573.495" stroke="#121D30" stroke-width="0.75" stroke-miterlimit="10"/>
<path d="M292.439 592.948H420.42" stroke="#121D30" stroke-width="0.75" stroke-miterlimit="10"/>
<path d="M293.995 530.194V569.543" stroke="#121D30" stroke-width="0.75" stroke-miterlimit="10"/>
<path d="M479.253 312.239H183.835C176.79 312.239 171.08 317.95 171.08 324.994V520.109C171.08 527.153 176.79 532.864 183.835 532.864H479.253C486.297 532.864 492.008 527.153 492.008 520.109V324.994C492.008 317.95 486.297 312.239 479.253 312.239Z" fill="#DEDEDE"/>
<path d="M492.023 359.095V520.109C492.023 521.785 491.693 523.445 491.051 524.993C490.409 526.542 489.468 527.949 488.282 529.133C487.096 530.318 485.688 531.257 484.139 531.897C482.589 532.537 480.929 532.866 479.253 532.864H337.937" stroke="#121D30" stroke-width="0.75" stroke-miterlimit="10"/>
<path d="M171.08 491.287V324.979C171.08 323.303 171.41 321.643 172.052 320.094C172.694 318.546 173.635 317.139 174.821 315.954C176.007 314.77 177.415 313.83 178.964 313.19C180.514 312.55 182.174 312.222 183.85 312.224H479.253" stroke="#121D30" stroke-width="0.75" stroke-miterlimit="10"/>
<path d="M394.573 392.265C386.165 392.26 378.002 395.099 371.412 400.321C371.412 400.199 371.412 400.077 371.412 399.955C371.412 389.381 367.212 379.241 359.735 371.764C352.258 364.287 342.118 360.087 331.544 360.087C320.97 360.087 310.83 364.287 303.353 371.764C295.876 379.241 291.676 389.381 291.676 399.955V400.321C286.992 396.625 281.492 394.103 275.634 392.966C269.777 391.829 263.733 392.11 258.006 393.785C252.28 395.461 247.037 398.482 242.717 402.597C238.396 406.713 235.123 411.802 233.171 417.44C231.218 423.078 230.643 429.102 231.494 435.007C232.344 440.913 234.595 446.529 238.059 451.388C241.523 456.246 246.1 460.205 251.406 462.933C256.712 465.662 262.594 467.082 268.561 467.073C269.049 467.073 269.522 467.073 270.086 467.073C270.651 467.073 271.047 467.073 271.536 467.073H392.346H393.52H394.68C404.333 466.683 413.46 462.574 420.152 455.606C426.844 448.639 430.581 439.353 430.581 429.692C430.581 420.031 426.844 410.745 420.152 403.778C413.46 396.81 404.333 392.701 394.68 392.311L394.573 392.265Z" fill="white"/>
<path d="M394.573 392.265C386.165 392.26 378.002 395.099 371.412 400.321C371.412 400.199 371.412 400.077 371.412 399.955C371.412 389.381 367.212 379.241 359.735 371.764C352.258 364.287 342.118 360.087 331.544 360.087C320.97 360.087 310.83 364.287 303.353 371.764C295.876 379.241 291.676 389.381 291.676 399.955V400.321C286.992 396.625 281.492 394.103 275.634 392.966C269.777 391.829 263.733 392.11 258.006 393.785C252.28 395.461 247.037 398.482 242.717 402.597C238.396 406.713 235.123 411.802 233.171 417.44C231.218 423.078 230.643 429.102 231.494 435.007C232.344 440.913 234.595 446.529 238.059 451.388C241.523 456.246 246.1 460.205 251.406 462.933C256.712 465.662 262.594 467.082 268.561 467.073C269.049 467.073 269.522 467.073 270.086 467.073C270.651 467.073 271.047 467.073 271.536 467.073" stroke="#121D30" stroke-width="0.75" stroke-miterlimit="10"/>
<path d="M345.55 488.152C364.547 480.419 373.678 458.751 365.945 439.754C358.212 420.757 336.543 411.627 317.547 419.36C298.55 427.093 289.419 448.761 297.152 467.758C304.885 486.754 326.554 495.885 345.55 488.152Z" fill="#121D30"/>
<path d="M347.381 467.561L333.65 453.738L347.381 440.006C347.616 439.732 347.739 439.381 347.725 439.021C347.712 438.661 347.564 438.319 347.31 438.063C347.056 437.807 346.716 437.656 346.356 437.64C345.996 437.624 345.643 437.745 345.367 437.977L331.559 451.8L317.736 437.977C317.607 437.826 317.448 437.704 317.27 437.618C317.092 437.532 316.897 437.484 316.699 437.477C316.501 437.469 316.304 437.503 316.12 437.576C315.935 437.649 315.768 437.759 315.629 437.9C315.489 438.04 315.38 438.208 315.309 438.393C315.237 438.578 315.205 438.775 315.214 438.973C315.223 439.171 315.272 439.365 315.36 439.543C315.447 439.721 315.57 439.878 315.722 440.006L329.53 453.738L315.722 467.561C315.587 467.692 315.48 467.849 315.407 468.022C315.334 468.195 315.296 468.381 315.296 468.568C315.296 468.756 315.334 468.942 315.407 469.115C315.48 469.288 315.587 469.445 315.722 469.575C315.99 469.84 316.352 469.988 316.729 469.988C317.106 469.988 317.468 469.84 317.736 469.575L331.559 455.844L345.367 469.575C345.636 469.84 345.998 469.988 346.374 469.988C346.751 469.988 347.113 469.84 347.381 469.575C347.516 469.445 347.623 469.288 347.696 469.115C347.77 468.942 347.807 468.756 347.807 468.568C347.807 468.381 347.77 468.195 347.696 468.022C347.623 467.849 347.516 467.692 347.381 467.561Z" fill="white"/>
<path d="M59.2719 546.123V571.038H227.487V546.123H59.2719Z" fill="#5C5C5C"/>
<path d="M65.4971 548.717V568.414H156.188V548.717H65.4971Z" fill="white"/>
<path d="M67.923 549.983V567.178H69.9523V549.983H67.923Z" fill="#5C5C5C"/>
<path d="M150.299 549.983V567.178H152.328V549.983H150.299Z" fill="#5C5C5C"/>
<path d="M195.995 549.571C197.776 549.571 199.516 550.099 200.997 551.088C202.477 552.077 203.631 553.483 204.312 555.128C204.993 556.773 205.172 558.583 204.824 560.329C204.477 562.075 203.62 563.679 202.361 564.938C201.102 566.197 199.498 567.055 197.752 567.402C196.005 567.749 194.195 567.571 192.551 566.89C190.906 566.208 189.5 565.055 188.511 563.574C187.521 562.094 186.993 560.353 186.993 558.573C186.993 556.186 187.942 553.896 189.63 552.208C191.318 550.519 193.608 549.571 195.995 549.571Z" fill="#969696"/>
<path d="M195.995 550.944C197.504 550.944 198.979 551.392 200.234 552.23C201.488 553.068 202.466 554.26 203.043 555.654C203.621 557.048 203.772 558.581 203.477 560.061C203.183 561.541 202.457 562.9 201.39 563.967C200.323 565.034 198.963 565.761 197.484 566.055C196.004 566.35 194.47 566.199 193.076 565.621C191.682 565.044 190.49 564.066 189.652 562.811C188.814 561.557 188.366 560.082 188.366 558.573C188.366 556.55 189.17 554.609 190.601 553.179C192.032 551.748 193.972 550.944 195.995 550.944Z" fill="#DEDEDE"/>
<path d="M224.725 568.857V564.691" stroke="#121D30" stroke-width="0.75" stroke-miterlimit="10"/>
<path d="M221.598 568.857V566.446" stroke="#121D30" stroke-width="0.75" stroke-miterlimit="10"/>
<path d="M59.2719 571.039V595.954H227.487V571.039H59.2719Z" fill="#EDB837"/>
<path d="M65.5122 573.632V593.33H156.203V573.632H65.5122Z" fill="white"/>
<path d="M67.923 574.899V592.094H69.9523V574.899H67.923Z" fill="#DEDEDE"/>
<path d="M150.314 574.899V592.094H152.343V574.899H150.314Z" fill="#DEDEDE"/>
<path d="M195.995 574.502C197.777 574.502 199.518 575.03 200.998 576.02C202.479 577.01 203.633 578.417 204.314 580.063C204.995 581.708 205.172 583.519 204.823 585.266C204.475 587.012 203.616 588.616 202.355 589.875C201.095 591.133 199.489 591.989 197.742 592.335C195.995 592.68 194.185 592.5 192.54 591.816C190.895 591.133 189.49 589.976 188.503 588.494C187.516 587.012 186.99 585.27 186.993 583.489C186.997 581.104 187.948 578.818 189.635 577.133C191.323 575.448 193.611 574.502 195.995 574.502Z" fill="#5C5C5C"/>
<path d="M195.995 575.86C197.504 575.86 198.979 576.307 200.234 577.146C201.488 577.984 202.466 579.175 203.043 580.569C203.621 581.963 203.772 583.497 203.477 584.977C203.183 586.457 202.457 587.816 201.39 588.883C200.323 589.95 198.963 590.677 197.484 590.971C196.004 591.265 194.47 591.114 193.076 590.537C191.682 589.959 190.49 588.982 189.652 587.727C188.814 586.473 188.366 584.998 188.366 583.489C188.366 581.465 189.17 579.525 190.601 578.094C192.032 576.664 193.972 575.86 195.995 575.86Z" fill="#DEDEDE"/>
<path d="M221.948 577.142V579.247" stroke="#121D30" stroke-width="0.75" stroke-miterlimit="10"/>
<path d="M225.061 583.397V577.843" stroke="#121D30" stroke-width="0.75" stroke-miterlimit="10"/>
<path d="M13.5601 596H649.543" stroke="#121D30" stroke-miterlimit="10"/>
<path d="M610.712 229.192C607.803 228.53 605.081 227.221 602.748 225.362L603.496 224.416C605.691 226.164 608.251 227.395 610.987 228.017L610.712 229.192ZM619.562 229.192L619.287 228.017C622.017 227.382 624.571 226.147 626.763 224.401L627.511 225.347C625.178 227.199 622.463 228.512 619.562 229.192ZM597.225 218.511C595.925 215.828 595.247 212.887 595.241 209.906H596.447C596.454 212.712 597.09 215.48 598.308 218.008L597.225 218.511ZM633.019 218.511L631.936 217.993C633.164 215.469 633.796 212.697 633.782 209.891H634.652H634.987C634.985 212.851 634.312 215.772 633.019 218.435V218.511ZM598.278 201.743L597.194 201.224C598.483 198.537 600.36 196.175 602.687 194.313L603.435 195.243C601.259 197.005 599.499 199.224 598.278 201.743ZM631.844 201.652C630.619 199.131 628.84 196.92 626.641 195.182L627.389 194.236C629.725 196.089 631.617 198.44 632.928 201.118L631.844 201.652ZM610.911 191.658L610.636 190.483C612.103 190.148 613.602 189.979 615.107 189.98C616.574 189.977 618.037 190.135 619.47 190.453L619.196 191.627C617.854 191.322 616.483 191.168 615.107 191.17C613.694 191.171 612.286 191.335 610.911 191.658Z" fill="#2E363D"/>
<path d="M37.9569 257.266H37.606V256.06H37.9417C40.5941 256.06 43.2389 255.774 45.8298 255.206L46.0892 256.381C43.419 256.973 40.6919 257.269 37.9569 257.266ZM29.1228 256.228C26.3389 255.571 23.6406 254.593 21.082 253.314L21.616 252.246C24.0979 253.467 26.7077 254.409 29.3974 255.053L29.1228 256.228ZM54.191 253.619L53.6723 252.536C56.1716 251.347 58.5307 249.883 60.706 248.172L61.4536 249.118C59.213 250.909 56.7766 252.439 54.191 253.68V253.619ZM13.9109 248.676C11.7032 246.873 9.70695 244.825 7.96045 242.573L8.90642 241.84C10.6023 244.027 12.5367 246.018 14.6738 247.775L13.9109 248.676ZM67.5262 243.107L66.5802 242.344C68.3215 240.191 69.8112 237.847 71.0202 235.356L72.1035 235.89C70.8527 238.478 69.3174 240.919 67.5262 243.168V243.107ZM3.44419 235.249C2.25407 232.65 1.35354 229.928 0.758854 227.132L1.94895 226.888C2.51527 229.596 3.38537 232.232 4.54274 234.745L3.44419 235.249ZM74.8803 227.819L73.7055 227.544C74.3169 224.851 74.624 222.097 74.621 219.335H75.8263C75.8505 222.207 75.5537 225.073 74.9414 227.88L74.8803 227.819ZM1.17081 218.664H0.0264893C0.0736847 215.808 0.447381 212.967 1.14029 210.196L2.29987 210.486C1.63579 213.178 1.27752 215.937 1.23184 218.71L1.17081 218.664ZM73.9801 212.439C73.4615 209.725 72.6374 207.079 71.5237 204.551L72.6222 204.062C73.7839 206.675 74.634 209.414 75.155 212.225L73.9801 212.439ZM5.13779 202.705L4.06976 202.17C5.35882 199.619 6.93552 197.223 8.7691 195.03L9.69982 195.808C7.94466 197.947 6.43489 200.275 5.19882 202.75L5.13779 202.705ZM67.3583 197.395C65.7015 195.182 63.8029 193.16 61.6978 191.368L62.4759 190.453C64.6497 192.303 66.6098 194.391 68.3196 196.678L67.3583 197.395ZM15.7418 190.132L15.0095 189.171C17.2857 187.448 19.7472 185.984 22.3484 184.807L22.8519 185.906C20.3273 187.037 17.9415 188.455 15.7418 190.132ZM54.9539 186.791C52.4955 185.511 49.9005 184.513 47.2183 183.816L47.5234 182.656C50.2909 183.366 52.9682 184.39 55.5032 185.708L54.9539 186.791ZM30.7858 183.373L30.557 182.183C33.0087 181.694 35.5027 181.449 38.0027 181.451H39.0707V182.656C38.7351 182.656 38.3689 182.656 38.0485 182.656C35.5894 182.65 33.136 182.89 30.7248 183.373H30.7858Z" fill="#2E363D"/>
<path d="M73.4767 251.91C79.7966 251.91 84.9199 246.787 84.9199 240.467C84.9199 234.147 79.7966 229.024 73.4767 229.024C67.1567 229.024 62.0334 234.147 62.0334 240.467C62.0334 246.787 67.1567 251.91 73.4767 251.91Z" fill="#2E363D"/>
<path d="M484.09 39.2191C484.093 40.8885 483.6 42.5213 482.675 43.9108C481.75 45.3004 480.433 46.3842 478.892 47.0251C477.35 47.6661 475.653 47.8354 474.015 47.5115C472.378 47.1877 470.873 46.3853 469.691 45.2059C468.51 44.0265 467.705 42.5231 467.378 40.886C467.051 39.2489 467.217 37.5516 467.855 36.009C468.494 34.4664 469.575 33.1477 470.963 32.2199C472.351 31.2921 473.983 30.7969 475.652 30.7969C477.887 30.7969 480.031 31.6837 481.613 33.2628C483.195 34.8418 484.085 36.984 484.09 39.2191Z" fill="#2E363D"/>
<path d="M607.279 195.32C607.264 196.508 606.898 197.666 606.227 198.647C605.555 199.628 604.609 200.389 603.507 200.833C602.404 201.278 601.195 201.386 600.031 201.145C598.867 200.904 597.8 200.324 596.965 199.478C596.13 198.632 595.563 197.558 595.337 196.391C595.11 195.224 595.234 194.017 595.692 192.92C596.151 191.823 596.923 190.886 597.912 190.227C598.902 189.568 600.064 189.217 601.253 189.217C602.858 189.237 604.391 189.889 605.519 191.031C606.647 192.173 607.279 193.714 607.279 195.32Z" fill="#2E363D"/>
<path d="M193.127 157.145C198.116 157.145 202.159 153.101 202.159 148.113C202.159 143.124 198.116 139.08 193.127 139.08C188.138 139.08 184.094 143.124 184.094 148.113C184.094 153.101 188.138 157.145 193.127 157.145Z" fill="#2E363D"/>
<path d="M209.392 175.821C208.677 175.823 207.963 175.772 207.256 175.668L207.408 174.478C210.102 174.83 212.841 174.456 215.342 173.395L215.815 174.493C213.786 175.368 211.601 175.819 209.392 175.821ZM199.291 172.296C196.992 170.473 195.226 168.065 194.18 165.323L195.309 164.896C196.271 167.437 197.906 169.668 200.039 171.35L199.291 172.296ZM222.559 169.092L221.582 168.375C223.179 166.178 224.15 163.589 224.39 160.883L225.58 160.99C225.328 163.915 224.284 166.716 222.559 169.092ZM194.332 159.617H193.127C193.122 156.682 193.919 153.802 195.431 151.286L196.453 151.897C195.063 154.232 194.33 156.899 194.332 159.617ZM222.94 153.071C221.762 150.619 219.937 148.535 217.661 147.045L218.333 146.038C220.777 147.656 222.742 149.901 224.024 152.537L222.94 153.071ZM202.251 146.358L201.671 145.305C204.26 143.917 207.174 143.248 210.109 143.368V144.573C207.382 144.434 204.669 145.03 202.251 146.297V146.358Z" fill="#2E363D"/>
<path d="M494.144 71.4737C491.248 71.2619 488.427 70.4514 485.86 69.0935L486.424 68.0255C488.843 69.3097 491.504 70.0737 494.236 70.2684L494.144 71.4737ZM502.689 70.3599L502.277 69.2308C504.862 68.3228 507.231 66.8889 509.234 65.0197L510.058 65.9047C507.934 67.8809 505.425 69.3976 502.689 70.3599ZM479.238 63.5855C477.43 61.3394 476.11 58.7413 475.362 55.9567L476.522 55.6516C477.22 58.2976 478.468 60.7669 480.184 62.8989L479.238 63.5855ZM515.047 58.9167L513.949 58.4437C515.043 55.9369 515.604 53.2298 515.597 50.4945H516.802C516.814 53.3939 516.216 56.2634 515.047 58.9167ZM515.49 48.3279C515.196 45.6074 514.339 42.978 512.972 40.6076L514.01 39.9973C515.474 42.5232 516.384 45.3317 516.68 48.2364L515.49 48.3279ZM476.064 47.4582L474.874 47.2904C475.317 44.4164 476.356 41.667 477.926 39.2191L478.933 39.8599C477.459 42.1659 476.482 44.7537 476.064 47.4582ZM507.571 34.5045C505.379 32.8679 502.869 31.7089 500.202 31.1021L500.476 29.9272C503.306 30.5672 505.969 31.7996 508.288 33.5433L507.571 34.5045ZM484.578 34.0163L483.891 33.0245C486.289 31.3888 489.002 30.2715 491.856 29.7441L492.085 30.919C489.393 31.4149 486.836 32.4701 484.578 34.0163Z" fill="#2E363D"/>
</svg>
